<svg width="18" height="18" viewBox="0 0 18 18" fill="none" xmlns="http://www.w3.org/2000/svg">
<path d="M8.30626 13.2603C7.79465 13.1324 7.3224 12.9553 6.9387 12.6208C6.46645 12.2075 6.25 11.6959 6.25 11.076C6.25 10.6923 6.53532 10.3971 6.89934 10.3775C7.28305 10.3578 7.59788 10.6234 7.61756 11.0072C7.63723 11.3909 7.83401 11.6369 8.16852 11.7746C8.74899 12.0107 9.3393 12.0206 9.90994 11.7352C10.4904 11.4401 10.5691 10.6333 10.0378 10.2397C9.81155 10.0725 9.54591 9.95438 9.28027 9.84615C8.72931 9.61986 8.14884 9.45259 7.61756 9.18694C6.60419 8.69499 6.10242 7.65206 6.28935 6.55009C6.41726 5.81216 6.86983 5.33989 7.51917 5.03488C7.76514 4.91682 8.02094 4.84794 8.30626 4.74955C8.30626 4.58229 8.30626 4.39535 8.30626 4.20841C8.31609 3.79517 8.62109 3.5 9.00479 3.5C9.37866 3.50984 9.67381 3.80501 9.68365 4.19857C9.69349 4.37567 9.68365 4.56261 9.68365 4.73971C9.94929 4.8381 10.2248 4.91682 10.4707 5.02504C11.2578 5.38909 11.7202 5.98927 11.7497 6.88462C11.7596 7.29785 11.4841 7.6127 11.0906 7.62254C10.7069 7.64222 10.4019 7.36673 10.3723 6.96333C10.3527 6.63864 10.1953 6.42218 9.91978 6.28444C9.31962 5.99911 8.6998 5.97943 8.09965 6.2746C7.49949 6.56977 7.42079 7.40608 7.98158 7.77012C8.37512 8.02594 8.8277 8.18336 9.27043 8.35063C9.81155 8.54741 10.3527 8.73435 10.8151 9.07871C11.8776 9.88551 12.0646 11.5286 11.1988 12.4535C10.7954 12.8864 10.274 13.0832 9.68365 13.2308C9.68365 13.4079 9.68365 13.5948 9.68365 13.7818C9.67381 14.2048 9.38849 14.5 8.99495 14.5C8.60141 14.5 8.31609 14.2048 8.30626 13.7916C8.30626 13.6342 8.30626 13.4571 8.30626 13.2603Z" fill="#444444"/>
<path d="M9 18C4.03734 18 0 13.9627 0 9C0 4.03734 4.03734 0 9 0C13.9627 0 18 4.03734 18 9C18 13.9627 13.9627 18 9 18ZM9 1.28568C4.74637 1.28568 1.28568 4.74637 1.28568 9C1.28568 13.2536 4.74637 16.7143 9 16.7143C13.2536 16.7143 16.7143 13.2536 16.7143 9C16.7143 4.74637 13.2536 1.28568 9 1.28568Z" fill="#444444"/>
</svg>
