<svg width="20" height="20" viewBox="0 0 20 20" fill="none" xmlns="http://www.w3.org/2000/svg">
<path d="M20 10C20 15.5228 15.5228 20 10 20C4.47715 20 0 15.5228 0 10C0 4.47715 4.47715 0 10 0C15.5228 0 20 4.47715 20 10Z" fill="white"/>
<path fill-rule="evenodd" clip-rule="evenodd" d="M5.87038 5.86942C5.54449 6.19531 5.54449 6.72368 5.87039 7.04958L8.82033 9.99952L5.86942 12.9504C5.54353 13.2763 5.54353 13.8047 5.86942 14.1306C6.19531 14.4565 6.72368 14.4565 7.04958 14.1306L10.0005 11.1797L12.9513 14.1305C13.2772 14.4564 13.8056 14.4564 14.1315 14.1305C14.4574 13.8046 14.4574 13.2762 14.1315 12.9504L11.1806 9.99952L14.1305 7.04965C14.4564 6.72375 14.4564 6.19538 14.1305 5.86949C13.8046 5.5436 13.2762 5.5436 12.9504 5.86949L10.0005 8.81936L7.05054 5.86942C6.72465 5.54353 6.19628 5.54353 5.87038 5.86942Z" fill="#82C38B"/>
</svg>
