<svg width="18" height="18" viewBox="0 0 18 18" fill="none" xmlns="http://www.w3.org/2000/svg">
<g clip-path="url(#clip0)">
<path d="M5.63968 3.32486H12.3616C12.5616 3.32486 12.7254 3.16161 12.7254 2.96117V0H5.27515V2.96117C5.27515 3.16161 5.43855 3.32486 5.63968 3.32486Z" fill="white"/>
<path d="M17.7189 4.52773L13.9255 0.718384V2.96113C13.9255 3.82361 13.2238 4.52537 12.3613 4.52537H5.63941C4.77675 4.52537 4.07517 3.82361 4.07517 2.96113V0H1.65185C0.739586 0 0.00012207 0.739611 0.00012207 1.65124V16.3488C0.00012207 17.2604 0.739586 18 1.65185 18H16.3487C17.2604 18 18 17.2605 18 16.3488V5.20805C18 4.95256 17.8988 4.70808 17.7189 4.52773ZM15.1999 14.2124C15.1999 14.7443 14.7686 15.1762 14.2355 15.1762H3.76396C3.23141 15.1762 2.80018 14.7442 2.80018 14.2124V9.18721C2.80018 8.65544 3.23141 8.22361 3.76396 8.22361H14.2355C14.7686 8.22361 15.1999 8.65551 15.1999 9.18721V14.2124Z" fill="white"/>
<path d="M13.1372 11.9704H4.8623C4.53034 11.9704 4.26184 12.2384 4.26184 12.5703C4.26184 12.9023 4.53034 13.1703 4.8623 13.1703H13.1373C13.4685 13.1703 13.7371 12.9023 13.7371 12.5703C13.7371 12.2384 13.4685 11.9704 13.1372 11.9704Z" fill="white"/>
<path d="M13.1372 9.76999H4.8623C4.53034 9.76999 4.26184 10.038 4.26184 10.3699C4.26184 10.7019 4.53034 10.9699 4.8623 10.9699H13.1373C13.4685 10.9699 13.7371 10.7019 13.7371 10.3699C13.7371 10.038 13.4685 9.76999 13.1372 9.76999Z" fill="white"/>
</g>
<defs>
<clipPath id="clip0">
<rect width="18" height="18" fill="white"/>
</clipPath>
</defs>
</svg>
